<?xml version="1.0" encoding="utf-8"?>
<!-- Generator: Adobe Illustrator 16.0.0, SVG Export Plug-In . SVG Version: 6.00 Build 0)  -->
<!DOCTYPE svg PUBLIC "-//W3C//DTD SVG 1.1//EN" "http://www.w3.org/Graphics/SVG/1.1/DTD/svg11.dtd">
<svg version="1.1" id="Layer_1" xmlns="http://www.w3.org/2000/svg" xmlns:xlink="http://www.w3.org/1999/xlink" x="0px" y="0px"
	 width="585px" height="560px" viewBox="0 0 585 560" enable-background="new 0 0 585 560" xml:space="preserve">
<g>
	<g>
		<g>
			<path fill="#BED9A1" d="M432.416,436.608l29.1,37.037c4.902-4.271,9.638-8.721,14.209-13.339l-35.075-31.409
				C437.978,431.545,435.223,434.105,432.416,436.608z"/>
			<path fill="#BED9A1" d="M402.459,458.958l22.225,41.53c5.578-3.363,11.02-6.926,16.31-10.685l-29.107-37.043
				C408.801,454.904,405.664,456.979,402.459,458.958z"/>
			<path fill="#348B6C" d="M478.693,378.268l39.984,24.833c3.152-5.67,6.107-11.468,8.837-17.385l-43.717-17.524
				C482.177,371.596,480.486,374.964,478.693,378.268z"/>
			<path fill="#348B6C" d="M458.059,409.43l35.097,31.424c4.089-5.043,7.991-10.246,11.706-15.586l-40.027-24.856
				C462.647,403.475,460.396,406.481,458.059,409.43z"/>
			<path fill="#013440" d="M344.262,483.949c-17.357,4.544-35.556,6.985-54.317,6.985c-118.289,0-214.521-96.235-214.521-214.519
				c0-118.29,96.232-214.525,214.521-214.525c118.283,0,214.516,96.235,214.516,214.525c0,10.582-0.801,20.979-2.289,31.16
				l46.116,9.672c2.091-13.31,3.193-26.945,3.193-40.832c0-144.214-117.324-261.542-261.537-261.542S28.407,132.202,28.407,276.416
				c0,144.211,117.325,261.533,261.538,261.533c23.872,0,47.002-3.233,68.992-9.252L344.262,483.949z"/>
			<path fill="#F1E8B3" d="M379.436,471.301c-3.41,1.571-6.87,3.053-10.376,4.447l14.69,44.791
				c6.084-2.345,12.066-4.91,17.927-7.693L379.436,471.301z"/>
			<path fill="#013440" d="M496.797,333.132c-1,3.649-2.099,7.25-3.285,10.813l43.754,17.54c2.112-6.127,4.005-12.354,5.665-18.673
				L496.797,333.132z"/>
		</g>
		<path fill="#001827" d="M527.745,200.166c-12.894,0-213.656-11.519-237.8-11.519c-24.144,0-224.909,11.519-237.802,11.519
			c-21.575,0-39.074,17.488-39.074,39.067c0,21.584,17.499,39.078,39.074,39.078c8.493,0,98.589,31.742,165.953,53.387
			c12.471,68.077,32.775,167.188,32.775,176.121c0,21.578,17.496,39.073,39.074,39.073c21.579,0,39.072-17.495,39.072-39.073
			c0-8.934,20.304-108.044,32.775-176.121c67.364-21.646,157.461-53.387,165.953-53.387c21.579,0,39.076-17.493,39.076-39.078
			C566.821,217.653,549.324,200.166,527.745,200.166z"/>
		<path fill="#348B6C" d="M343.472,246.991c0-16.848-23.964-30.508-53.527-30.508c-29.565,0-53.529,13.66-53.529,30.508
			c0,10.402,9.142,19.571,23.079,25.075c0.621,28.612,13.997,51.484,30.451,51.484c16.457,0,29.828-22.872,30.449-51.484
			C334.33,266.562,343.472,257.393,343.472,246.991z"/>
	</g>
</g>
</svg>
